<svg id="Icon" height="512" viewBox="0 0 64 64" width="512" xmlns="http://www.w3.org/2000/svg"><path d="m59 22.5h-20a4.50491 4.50491 0 0 0 -4.5 4.5v18a4.50491 4.50491 0 0 0 4.5 4.5h20a4.50491 4.50491 0 0 0 4.5-4.5v-18a4.50491 4.50491 0 0 0 -4.5-4.5zm-1.87891 9.49609-8 9a1.49989 1.49989 0 0 1 -2.18164.06446l-5-5a1.49984 1.49984 0 0 1 2.1211-2.1211l3.875 3.875 6.94336-7.81054a1.49968 1.49968 0 1 1 2.24218 1.99218z" fill="#3e3ef4"/><path d="m5 63.5h44a4.50491 4.50491 0 0 0 4.5-4.5v-6a1.5 1.5 0 0 0 -3 0v6a1.50164 1.50164 0 0 1 -1.5 1.5h-44a1.50164 1.50164 0 0 1 -1.5-1.5v-54a1.50164 1.50164 0 0 1 1.5-1.5h12.5v4.5a1.50039 1.50039 0 0 0 1.5 1.5h16a1.50038 1.50038 0 0 0 1.5-1.5v-4.5h12.5a1.50164 1.50164 0 0 1 1.5 1.5v13a1.5 1.5 0 0 0 3 0v-13a4.50491 4.50491 0 0 0 -4.5-4.5h-44a4.50491 4.50491 0 0 0 -4.5 4.5v54a4.50491 4.50491 0 0 0 4.5 4.5zm28.5-57h-13v-3h13z"/><path d="m10.93945 25.06055a1.50062 1.50062 0 0 0 2.40235-.38965l4-8a1.50018 1.50018 0 0 0 -2.6836-1.3418l-3.06933 6.13867-2.52832-2.52832a1.49984 1.49984 0 0 0 -2.1211 2.1211z"/><path d="m29 18.5h-7a1.5 1.5 0 0 0 0 3h7a1.5 1.5 0 0 0 0-3z"/><path d="m17.5 30a1.50039 1.50039 0 0 0 -1.5-1.5h-8a1.50039 1.50039 0 0 0 -1.5 1.5v8a1.50039 1.50039 0 0 0 1.5 1.5h8a1.50038 1.50038 0 0 0 1.5-1.5zm-3 6.5h-5v-5h5z"/><path d="m29 32.5h-7a1.5 1.5 0 0 0 0 3h7a1.5 1.5 0 0 0 0-3z"/><path d="m16 42.5h-8a1.50039 1.50039 0 0 0 -1.5 1.5v8a1.50039 1.50039 0 0 0 1.5 1.5h8a1.50038 1.50038 0 0 0 1.5-1.5v-8a1.50039 1.50039 0 0 0 -1.5-1.5zm-1.5 8h-5v-5h5z"/><path d="m29 46.5h-7a1.5 1.5 0 0 0 0 3h7a1.5 1.5 0 0 0 0-3z"/></svg>